<svg width="405" height="162" viewBox="0 0 405 162" fill="none" xmlns="http://www.w3.org/2000/svg">
<path d="M340.7 81H260.7V92H340.7V81Z" fill="white"/>
<path d="M241.1 80L167 154.2L174.7 161.9L207.8 128.9L240.8 161.9L248.6 154.1L215.6 121.1L248.9 87.8L241.1 80Z" fill="white"/>
<path d="M84.7 150H73.7V161H84.7V150Z" fill="white"/>
<path d="M174.508 80.0003L166.73 87.7784L174.508 95.5565L182.286 87.7784L174.508 80.0003Z" fill="white"/>
<path d="M306.7 150H295.7V161H306.7V150Z" fill="white"/>
<path d="M142.7 145.4L77.8 80.5L70 88.3L142.7 161H153.7V81H142.7V145.4Z" fill="white"/>
<g clip-path="url(#clip0_1504_23239)">
<path d="M274.611 25.9427H259.551V29.4246H274.611V25.9427Z" fill="white"/>
<path d="M9.1613 4.80427L7.81993 39.7751V40.384C7.81993 43.3521 8.69515 43.961 13.4137 44.2939V45.9112C9.96993 45.6448 8.6571 45.5782 6.75444 45.5782C4.85178 45.5782 3.50089 45.6639 0 45.9112V44.2939C4.75665 43.961 5.39404 43.4187 5.52722 39.7751L6.9447 6.65936V6.28835C6.9447 3.18701 5.99337 2.48303 1.35089 2.2452V0.561344C3.97656 0.761123 4.98497 0.827716 6.87811 0.827716C9.02976 0.849895 11.1807 0.738693 13.3186 0.494751L25.8096 34.5904L38.5479 0.494751C40.6941 0.714098 42.85 0.825227 45.0074 0.827716C46.7008 0.827716 47.7758 0.761123 50.3348 0.561344V2.2452C45.7494 2.51157 44.741 3.19653 44.741 6.22175V6.65936L45.4831 39.7371C45.5496 43.3807 46.1585 43.9229 51.0103 44.2559V45.8732C48.2154 45.5442 45.405 45.3632 42.591 45.3309C39.7738 45.3628 36.9603 45.5438 34.1622 45.8732V44.2559C38.7476 43.9895 39.7561 43.2475 39.7561 40.0796V39.7371L39.1472 4.87087L28.0357 34.9234L27.227 37.1495L26.2757 39.6419L25.4005 42.201L24.6585 44.4271H23.65L22.908 42.2676L21.9567 39.6419L21.0054 37.0163L20.1967 34.657L9.1613 4.80427Z" fill="white"/>
<path d="M68.4958 44.2273C62.3597 44.2273 59.6674 39.4707 59.6008 29.0061H79.7119C79.5788 18.6271 75.3263 13.0999 67.3447 13.0999C59.363 13.0999 54.2258 19.6355 54.2258 30.005C54.2258 40.3745 59.2869 46.4535 67.9725 46.4535C74.5748 46.4535 78.8938 42.3342 79.769 35.399H77.0577C76.2491 41.107 73.2524 44.2273 68.4958 44.2273ZM59.7626 26.5707C60.438 18.8269 62.9971 14.8503 67.3066 14.8503C71.6161 14.8503 73.9659 18.6556 74.3179 26.5707H59.7626Z" fill="white"/>
<path d="M83.717 15.5923V14.3746C86.7296 14.184 89.7124 13.664 92.6119 12.824C92.9544 15.3165 93.0875 16.401 93.2207 18.4178V19.1598C94.7048 15.3545 97.6064 13.0903 101.107 13.0903C104.608 13.0903 106.967 15.3165 106.967 18.551C106.967 20.5107 105.826 21.7855 104.113 21.7855C102.401 21.7855 101.345 20.8342 101.345 19.4928C101.37 19.2673 101.414 19.0444 101.478 18.8269L101.621 18.1514V17.5426C101.621 16.5912 100.812 15.9253 99.5946 15.9253C96.0937 15.9253 93.8867 20.1682 93.8867 26.8371V40.9072C93.8867 43.7612 94.5621 44.3415 98.6433 44.5413V45.8922C93.6471 45.3595 88.6085 45.3595 83.6123 45.8922V44.5603C87.722 44.3605 88.4641 43.8183 88.4641 40.9262V18.8935C88.3975 15.9919 88.0645 15.6589 84.5636 15.5923H83.717Z" fill="white"/>
<path d="M132.748 12.491V23.6025H131.283C130.066 17.7423 127.573 14.9169 123.464 14.9169C118.412 14.9169 115.444 20.368 115.444 30.0049C115.444 39.4421 118.069 44.2749 123.264 44.2749C127.437 44.2749 129.929 41.3099 130.741 35.3799H133.5C132.625 42.591 128.791 46.501 122.721 46.501C114.911 46.501 109.584 39.8892 109.584 30.0525C109.584 20.016 114.978 13.1379 122.902 13.1379C124.188 13.0772 125.472 13.3016 126.661 13.795C127.85 14.2884 128.915 15.0386 129.78 15.9919L131.597 12.5576L132.748 12.491Z" fill="white"/>
<path d="M152.574 44.2273C146.438 44.2273 143.746 39.4707 143.679 29.0061H163.752C163.619 18.6271 159.376 13.0999 151.385 13.0999C143.394 13.0999 138.247 19.645 138.247 30.0145C138.247 40.384 143.299 46.463 151.994 46.463C158.596 46.463 162.906 42.3437 163.79 35.4085H161.089C160.28 41.1165 157.283 44.2369 152.527 44.2369M143.765 26.5802C144.44 18.8364 146.999 14.8598 151.309 14.8598C155.618 14.8598 157.911 18.6651 158.32 26.5802H143.765Z" fill="white"/>
<path d="M195.089 38.8999V0C191.75 0.884288 188.347 1.50143 184.91 1.84558V2.98717C189.153 2.98717 189.667 3.46284 189.667 6.96373V18.7507C187.174 14.7075 185.214 13.4994 181.58 13.4994C174.369 13.4994 169.318 20.3014 169.318 30.0049C169.318 39.7085 174.436 46.52 181.78 46.52C185.585 46.52 188.249 44.7696 190.142 40.9928C190.26 42.8172 190.579 44.623 191.094 46.3773C193.644 45.5243 196.289 44.9844 198.971 44.7696L199.988 44.6269V43.4853C195.47 43.3521 195.07 43.0096 195.07 38.8999M182.398 44.6078C177.547 44.6078 174.988 39.5563 174.988 29.9193C174.988 20.2823 177.347 15.364 182.199 15.364C187.05 15.364 189.743 20.4916 189.743 30.395C189.743 39.756 187.25 44.6078 182.398 44.6078Z" fill="white"/>
<path d="M216.837 44.2273C210.71 44.2273 208.018 39.4707 207.942 29.0061H228.024C227.891 18.6271 223.648 13.0999 215.657 13.0999C207.666 13.0999 202.519 19.645 202.519 30.0145C202.519 40.384 207.571 46.463 216.266 46.463C222.868 46.463 227.177 42.3437 228.053 35.4085H225.36C224.552 41.1165 221.555 44.2369 216.798 44.2369M208.046 26.5802C208.712 18.8364 211.281 14.8598 215.59 14.8598C219.9 14.8598 222.193 18.6651 222.602 26.5802H208.046Z" fill="white"/>
<path d="M233.751 46.5199V35.2657L235.226 35.1991C236.443 41.3257 239.269 44.2938 243.987 44.2938C247.964 44.2938 250.932 41.6682 250.932 38.2244C250.932 35.9412 249.648 34.419 246.347 32.9064L243.788 31.7648L240.686 30.3473C235.768 28.0546 234.217 26.171 234.217 22.261C234.217 16.9336 238.394 13.2995 244.33 13.2995C246.793 13.2479 249.205 14.0029 251.198 15.4495L252.34 12.6907H253.558V23.1553H252.007C251.398 17.7613 249.153 15.2022 244.929 15.2022C241.362 15.2022 238.593 17.6281 238.593 20.796C238.593 23.4883 239.611 24.3635 245.738 27.0653L248.592 28.2734C253.71 30.4996 255.527 32.6591 255.527 36.6356C255.527 42.2865 251.018 46.3297 244.682 46.3297C241.729 46.3947 238.854 45.3799 236.596 43.4757L234.978 46.5199H233.751Z" fill="white"/>
<path d="M306.452 11.749C306.49 10.1057 306.144 8.4762 305.443 6.98989C304.741 5.50359 303.702 4.20147 302.409 3.187C300.125 1.50315 297.49 0.761108 293.114 0.761108H275.391V2.44496C280.243 2.72085 280.918 3.25359 280.918 6.89718V39.5753C280.918 43.2189 280.376 43.6851 275.391 44.0942V45.7114H292.439C297.424 45.7114 300.125 45.1026 302.951 43.3521C304.665 42.195 306.07 40.637 307.045 38.8133C308.02 36.9896 308.535 34.9554 308.545 32.8875C308.582 31.1736 308.224 29.4742 307.5 27.9204C306.776 26.3665 305.705 24.9999 304.368 23.926C302.796 22.7803 300.967 22.0387 299.041 21.7665C303.893 19.9494 306.452 16.5151 306.452 11.7965M286.578 2.85403H292.286C297.947 2.85403 300.439 5.61289 300.439 11.8821C300.439 14.9835 299.697 17.2096 298.213 18.96C296.729 20.7105 294.912 21.1766 291.145 21.1766H286.559L286.578 2.85403ZM293.009 23.2696C296.577 23.2696 298.603 23.8784 300.154 25.4291C301.705 26.9797 302.523 29.8718 302.523 33.1063C302.523 39.8417 299.146 43.6185 293.152 43.6185H290.726C287.159 43.6185 286.55 43.0762 286.55 40.1176V23.2696H293.009Z" fill="white"/>
<path d="M328.304 44.2273C322.168 44.2273 319.475 39.4707 319.409 29.0061H339.491C339.358 18.6271 335.106 13.0999 327.124 13.0999C319.142 13.0999 313.977 19.645 313.977 30.0145C313.977 40.384 319.038 46.463 327.723 46.463C334.326 46.463 338.645 42.3437 339.52 35.4085H336.866C336.057 41.1165 333.06 44.2369 328.304 44.2369M319.542 26.5802C320.217 18.8364 322.776 14.8598 327.095 14.8598C331.415 14.8598 333.698 18.6651 334.097 26.5802H319.542Z" fill="white"/>
<path d="M343.059 15.8586V14.7075C346.102 14.3675 349.098 13.6911 351.992 12.6907C352.37 14.6233 352.596 16.5828 352.667 18.5509C355.084 14.9168 357.852 13.2995 361.762 13.2995C365.672 13.2995 369.306 15.3829 370.657 18.684C371.383 20.6154 371.713 22.673 371.627 24.7345V40.9071C371.627 43.7611 372.303 44.3414 376.384 44.5412V45.8921C373.945 45.622 371.493 45.4886 369.04 45.4925C366.586 45.4854 364.134 45.6188 361.695 45.8921V44.5602C365.33 44.427 366.205 43.7516 366.205 41.0593V24.5537C366.205 18.684 364.454 16.3343 360.145 16.3343C355.559 16.3343 353.133 19.1883 353.133 24.7535V41.0593C353.133 43.7516 354.009 44.427 357.519 44.5602V45.9111C355.103 45.6399 352.673 45.5065 350.241 45.5115C347.81 45.5078 345.38 45.6412 342.964 45.9111V44.5602C347.073 44.3604 347.72 43.8182 347.72 40.9261V19.0456C347.654 16.2867 347.245 15.8776 343.915 15.8776C343.715 15.8776 343.373 15.811 343.04 15.811" fill="white"/>
<path d="M379.029 45.7114L397.294 15.6589H389.008C384.622 15.6589 383.547 16.6102 381.121 22.6607H379.771L381.321 13.8989H404.505L386.173 43.9609H394.06C398.635 43.9609 400.529 42.1344 402.545 36.0078H403.963L402.212 45.7114H379.029Z" fill="white"/>
</g>
<defs>
<clipPath id="clip0_1504_23239">
<rect width="404.505" height="46.52" fill="white"/>
</clipPath>
</defs>
</svg>
